<svg width="40" height="39" viewBox="0 0 40 39" fill="none" xmlns="http://www.w3.org/2000/svg">
  <path
    d="M40 18.8512C39.9993 19.0255 39.9631 19.1979 39.8938 19.3576C39.8244 19.5173 39.7233 19.6611 39.5967 19.7799L20.9208 38.5962C20.8028 38.7236 20.6601 38.8252 20.5014 38.8947C20.3428 38.9641 20.1717 39 19.9987 39C19.8258 39 19.6547 38.9641 19.4961 38.8947C19.3374 38.8252 19.1947 38.7236 19.0767 38.5962L0.40087 19.784C0.274386 19.6652 0.173535 19.5214 0.104575 19.3616C0.0356146 19.2018 0 19.0295 0 18.8552C0 18.681 0.0356146 18.5087 0.104575 18.3489C0.173535 18.1891 0.274386 18.0453 0.40087 17.9265L2.40463 15.9081C2.5226 15.7807 2.66534 15.6791 2.82396 15.6097C2.98258 15.5402 3.15369 15.5043 3.32665 15.5043C3.49961 15.5043 3.67072 15.5402 3.82934 15.6097C3.98796 15.6791 4.1307 15.7807 4.24867 15.9081L20.0028 31.7757L35.7553 15.9081C35.8733 15.7807 36.016 15.6791 36.1747 15.6097C36.3333 15.5402 36.5044 15.5043 36.6773 15.5043C36.8503 15.5043 37.0214 15.5402 37.18 15.6097C37.3386 15.6791 37.4814 15.7807 37.5994 15.9081L39.6031 17.9265C39.7281 18.0454 39.8277 18.1887 39.8959 18.3477C39.9641 18.5067 39.9996 18.678 40 18.8512ZM40 3.34687C39.9993 3.52122 39.9631 3.69354 39.8938 3.85328C39.8244 4.01301 39.7233 4.15677 39.5967 4.27562L28.6438 15.3085L20.9184 23.0903C20.8004 23.2177 20.6576 23.3192 20.499 23.3887C20.3404 23.4582 20.1693 23.4941 19.9963 23.4941C19.8234 23.4941 19.6523 23.4582 19.4936 23.3887C19.335 23.3192 19.1923 23.2177 19.0743 23.0903L0.40087 4.27969C0.274386 4.16086 0.173535 4.01707 0.104575 3.85729C0.0356146 3.69752 0 3.52516 0 3.35094C0 3.17671 0.0356146 3.00436 0.104575 2.84458C0.173535 2.6848 0.274386 2.54102 0.40087 2.42218L2.40463 0.403797C2.5226 0.276389 2.66534 0.174802 2.82396 0.105338C2.98258 0.0358746 3.15369 0 3.32665 0C3.49961 0 3.67072 0.0358746 3.82934 0.105338C3.98796 0.174802 4.1307 0.276389 4.24867 0.403797L20.0028 16.2713L35.7513 0.406227C35.8693 0.278819 36.012 0.177232 36.1706 0.107768C36.3292 0.0383047 36.5003 0.00243012 36.6733 0.00243012C36.8463 0.00243012 37.0174 0.0383047 37.176 0.107768C37.3346 0.177232 37.4773 0.278819 37.5953 0.406227L39.5991 2.42461C39.725 2.5434 39.8255 2.68684 39.8944 2.84612C39.9633 3.0054 39.9993 3.17718 40 3.35094V3.34687Z"
    fill="#000000"
  />
</svg>
