<svg width="40" height="38" viewBox="0 0 40 38" fill="none" xmlns="http://www.w3.org/2000/svg">
  <path
    d="M0.55957 2.02008V3.80008L6.29957 3.80808L12.0436 3.82008L6.29957 10.0721L0.55957 16.3201V17.1401V17.9601H9.47957H18.3996V16.2001V14.4401L12.7476 14.4321L7.09557 14.4201L12.7436 8.18008L18.3956 1.94008L18.3996 1.08808V0.240082H9.47957H0.55957V2.02008Z"
    fill="#000000"/>
  <path
    d="M21.5075 0.268082C21.4915 0.280083 21.4795 4.26808 21.4795 9.12808V17.9601H23.3395H25.1995V14.4601V10.9601H30.4995H35.7995V14.4601V17.9601H37.5795H39.3595V9.10008V0.240082H30.4475C25.5435 0.240082 21.5195 0.252083 21.5075 0.268082ZM35.7995 5.54008V7.28008H30.4995H25.1995V5.54008V3.80008H30.4995H35.7995V5.54008Z"
    fill="#000000"/>
  <path
    d="M0.55957 28.88V37.8H2.31957H4.07957L4.08757 31.72L4.09957 25.64L9.39957 31.72L14.6996 37.8H16.4916H18.2796V28.88V19.96H16.4996H14.7196L14.7116 26.044L14.6996 32.132L9.55957 26.236C6.73157 22.992 4.33957 20.256 4.24357 20.148L4.06757 19.96H2.31557H0.55957V28.88Z"
    fill="#000000"/>
  <path
    d="M21.5596 28.88V37.8H30.4996H39.4396V28.88V19.96H30.4996H21.5596V28.88ZM35.7596 27.688V31.74L33.6276 29.608L31.4996 27.48L30.2196 28.76L28.9396 30.04L31.0396 32.14C32.1956 33.296 33.1476 34.252 33.1556 34.26C33.1636 34.272 31.3596 34.28 29.1476 34.28H25.1196V28.96V23.64H30.4396H35.7596V27.688Z"
    fill="#000000"/>
</svg>
