<svg width="40" height="39" viewBox="0 0 40 39" fill="none" xmlns="http://www.w3.org/2000/svg">
  <g clip-path="url(#clip0)">
    <path
      d="M33.1602 4.20959H31.5353V6.68471H29.104V8.33903H31.5353V10.8269H33.1602V8.33903H35.604V6.68471H33.1652L33.1602 4.20959Z"
      fill="#000000"/>
    <path
      d="M7.9825 2.32369C7.93821 2.12534 7.82562 1.94969 7.66511 1.82854C7.50461 1.70739 7.3068 1.64875 7.1075 1.66323H0V3.32647H6.4025L12.1837 25.4689C12.228 25.6673 12.3406 25.8429 12.5011 25.9641C12.6616 26.0852 12.8594 26.1439 13.0587 26.1294H35.5912V24.47H13.6788L7.9825 2.32369Z"
      fill="#000000"/>
    <path d="M32.3426 28.7025H13.7476V30.3657H32.3426V28.7025Z" fill="#000000"/>
    <path
      d="M32.2535 32.5227C31.4146 32.5384 30.6144 32.8846 30.0211 33.4886C29.4278 34.0926 29.0877 34.9073 29.0723 35.7613C29.0723 36.1866 29.1545 36.6078 29.3144 37.0007C29.4743 37.3937 29.7086 37.7507 30.004 38.0514C30.2994 38.3522 30.6501 38.5907 31.0361 38.7535C31.422 38.9162 31.8357 39 32.2535 39C32.6713 39 33.085 38.9162 33.4709 38.7535C33.8569 38.5907 34.2076 38.3522 34.503 38.0514C34.7984 37.7507 35.0327 37.3937 35.1926 37.0007C35.3525 36.6078 35.4348 36.1866 35.4348 35.7613C35.4194 34.9073 35.0793 34.0926 34.486 33.4886C33.8927 32.8846 33.0924 32.5384 32.2535 32.5227ZM32.2535 37.3291C31.8476 37.3146 31.4623 37.1439 31.1751 36.8516C30.8879 36.5592 30.7203 36.1669 30.706 35.7537C30.706 35.3359 30.869 34.9352 31.1592 34.6397C31.4495 34.3443 31.8431 34.1783 32.2535 34.1783C32.6639 34.1783 33.0575 34.3443 33.3477 34.6397C33.638 34.9352 33.801 35.3359 33.801 35.7537C33.7882 36.1674 33.621 36.5606 33.3336 36.8532C33.0461 37.1459 32.6598 37.3161 32.2535 37.3291Z"
      fill="#000000"/>
    <path
      d="M15.1564 32.5227C14.3175 32.5384 13.5172 32.8846 12.9239 33.4886C12.3306 34.0926 11.9905 34.9073 11.9751 35.7613C11.9758 36.6201 12.3111 37.4435 12.9076 38.0507C13.5041 38.6579 14.3128 38.9993 15.1564 39C15.5741 39 15.9878 38.9162 16.3738 38.7535C16.7597 38.5907 17.1104 38.3522 17.4058 38.0514C17.7012 37.7507 17.9356 37.3937 18.0955 37.0007C18.2553 36.6078 18.3376 36.1866 18.3376 35.7613C18.3376 35.336 18.2553 34.9149 18.0955 34.5219C17.9356 34.129 17.7012 33.772 17.4058 33.4713C17.1104 33.1705 16.7597 32.932 16.3738 32.7692C15.9878 32.6065 15.5741 32.5227 15.1564 32.5227ZM15.1564 37.3291C14.7505 37.3146 14.3651 37.1439 14.0779 36.8516C13.7908 36.5592 13.6232 36.1669 13.6089 35.7537C13.6085 35.5467 13.6483 35.3416 13.7259 35.1502C13.8036 34.9589 13.9176 34.785 14.0613 34.6385C14.205 34.4921 14.3758 34.3759 14.5637 34.2967C14.7516 34.2175 14.953 34.1768 15.1564 34.177C15.5668 34.177 15.9604 34.343 16.2506 34.6385C16.5408 34.9339 16.7039 35.3346 16.7039 35.7524C16.7039 36.1703 16.5408 36.571 16.2506 36.8664C15.9604 37.1619 15.5668 37.3279 15.1564 37.3279V37.3291Z"
      fill="#000000"/>
    <path
      d="M39.9996 7.46481C39.9996 5.483 39.2263 3.58235 37.8498 2.181C36.4732 0.779643 34.6063 -0.00762939 32.6596 -0.00762939C30.7129 -0.00762939 28.8459 0.779643 27.4694 2.181C26.0929 3.58235 25.3196 5.483 25.3196 7.46481V7.63534H14.3058C14.1747 7.62969 14.0442 7.65632 13.9253 7.71298C13.8064 7.76963 13.7027 7.85464 13.6229 7.96079C13.5432 8.06695 13.4898 8.19111 13.4672 8.32275C13.4447 8.4544 13.4536 8.58964 13.4934 8.71701L17.0033 21.3293C17.0651 21.4984 17.1759 21.6444 17.321 21.7481C17.466 21.8517 17.6386 21.908 17.8158 21.9096H35.5983C35.797 21.9082 35.9902 21.8438 36.1513 21.7255C36.3124 21.6071 36.4332 21.4406 36.4971 21.2491C36.4971 21.2491 39.7646 9.40037 39.8196 9.15986C39.939 8.60304 39.9994 8.03476 39.9996 7.46481ZM15.3746 9.29475H25.5433C25.7674 10.2207 26.1656 11.0936 26.7158 11.8653H16.0233L15.3746 9.29475ZM34.9471 20.2387H18.3858L17.7371 17.6682H35.6883L34.9471 20.2387ZM36.1746 16.0049H17.2533L16.5496 13.5145H28.3446C29.581 14.4162 31.0602 14.9083 32.581 14.9241C34.1018 14.9398 35.5905 14.4783 36.8446 13.6023L36.1746 16.0049ZM32.6646 13.2677C31.536 13.2677 30.4328 12.927 29.4944 12.2886C28.556 11.6503 27.8246 10.743 27.3927 9.68154C26.9608 8.62005 26.8478 7.45201 27.068 6.32513C27.2882 5.19825 27.8316 4.16315 28.6297 3.35072C29.4277 2.53828 30.4445 1.98501 31.5514 1.76086C32.6583 1.53671 33.8056 1.65175 34.8483 2.09144C35.891 2.53112 36.7822 3.2757 37.4092 4.23102C38.0362 5.18634 38.3708 6.3095 38.3708 7.45845C38.3765 8.2236 38.2326 8.98226 37.9476 9.69028C37.6626 10.3983 37.2421 11.0416 36.7107 11.5826C36.1792 12.1237 35.5473 12.5517 34.8519 12.8419C34.1564 13.1321 33.4112 13.2785 32.6596 13.2728L32.6646 13.2677Z"
      fill="#000000"/>
  </g>
  <defs>
    <clipPath id="clip0">
      <rect width="40" height="40"/>
    </clipPath>
  </defs>
</svg>
